<svg xmlns="http://www.w3.org/2000/svg" viewBox="0 0 400 100" width="400" height="100">
  <defs>
    <linearGradient id="grad3" x1="0%" y1="0%" x2="100%" y2="100%">
      <stop offset="0%" style="stop-color:#6366f1;stop-opacity:1" />
      <stop offset="50%" style="stop-color:#8b5cf6;stop-opacity:1" />
      <stop offset="100%" style="stop-color:#a855f7;stop-opacity:1" />
    </linearGradient>
  </defs>
  <!-- Document body -->
  <path d="M12,18 L48,18 L56,26 L56,78 Q56,82 52,82 L16,82 Q12,82 12,78 Z" fill="url(#grad3)"/>
  <!-- Folded corner -->
  <path d="M48,18 L48,26 L56,26 Z" fill="white" opacity="0.3"/>
  <!-- Document lines -->
  <rect x="20" y="36" width="28" height="2.5" rx="1.2" fill="white" opacity="0.5"/>
  <rect x="20" y="43" width="22" height="2.5" rx="1.2" fill="white" opacity="0.4"/>
  <rect x="20" y="50" width="26" height="2.5" rx="1.2" fill="white" opacity="0.3"/>
  <rect x="20" y="57" width="18" height="2.5" rx="1.2" fill="white" opacity="0.25"/>
  <!-- Lightning bolt at top-left corner (overlaid on top) -->
  <circle cx="18" cy="18" r="14" fill="#fbbf24"/>
  <polygon points="19,5 11,18 16,18 13,31 22,15 17,15 21,5" fill="white"/>
  <!-- Text: PROPIFY.AI -->
  <text x="75" y="55" font-family="Arial, sans-serif" font-size="40" font-weight="900" fill="#8b5cf6" letter-spacing="1">PROPIFY</text>
  <text x="300" y="55" font-family="Arial, sans-serif" font-size="40" font-weight="900" fill="#8b5cf6">.AI</text>
  <!-- Tagline -->
  <text x="76" y="76" font-family="Arial, sans-serif" font-size="11" font-weight="600" fill="#8b5cf6" letter-spacing="2.5">AI THAT SEALS THE DEAL</text>
</svg>